# AST/ASF file generated using VICON BodyLanguage
# -----------------------------------------------
:version 1.10
:name VICON
:units
  mass 1.0
  length 0.45
  angle deg
:documentation
   .ast/.asf automatically generated from VICON data using
   VICON BodyBuilder and BodyLanguage model FoxedUp or BRILLIANT.MOD
:root
   order TX TY TZ RX RY RZ
   axis XYZ
   position 0 0 0  
   orientation 0 0 0 
:bonedata
  begin
     id 1 
     name lhipjoint
     direction 0.653368 -0.678499 0.335782 
     length 2.51848 
     axis 0 0 0  XYZ
  end
  begin
     id 2 
     name lfemur
     direction 0.34202 -0.939693 0  
     length 6.57749  
     axis 0 0 20  XYZ
    dof rx ry rz
    limits (-160.0 20.0)
           (-70.0 70.0)
           (-60.0 70.0)
  end
  begin
     id 3 
     name ltibia
     direction 0.34202 -0.939693 0   
     length 7.94618   
     axis 0 0 20   XYZ
    dof rx
    limits (-10.0 170.0)
  end
  begin
     id 4 
     name lfoot
     direction 0.0811271 -0.222895 0.971461   
     length 2.31339   
     axis -90 7.62852e-016 20   XYZ
    dof rx rz
    limits (-45.0 90.0)
           (-70.0 20.0)
  end
  begin
     id 5 
     name ltoes
     direction 1.53568e-011 -4.21885e-011 1   
     length 1.15935   
     axis -90 7.62852e-016 20   XYZ
    dof rx
    limits (-90.0 20.0)
  end
  begin
     id 6 
     name rhipjoint
     direction -0.640058 -0.688614 0.340788   
     length 2.48149  
     axis 0 0 0  XYZ 
  end
  begin
     id 7 
     name rfemur
     direction -0.34202 -0.939693 0   
     length 6.57875   
     axis 0 0 -20   XYZ
    dof rx ry rz
    limits (-160.0 20.0)
           (-70.0 70.0)
           (-70.0 60.0)
  end
  begin
     id 8 
     name rtibia
     direction -0.34202 -0.939693 0   
     length 7.977   
     axis 0 0 -20   XYZ
    dof rx
    limits (-10.0 170.0)
 end
 begin
     id 9 
     name rfoot
     direction -0.0979793 -0.269196 0.958089   
     length 2.19857  
     axis -90 -7.62852e-016 -20   XYZ
    dof rx rz
    limits (-45.0 90.0)
           (-20.0 70.0)
  end
  begin
     id 10 
     name rtoes
     direction -1.53556e-011 -4.21868e-011 1   
     length 1.09838   
     axis -90 -7.62852e-016 -20   XYZ
    dof rx
    limits (-90.0 20.0)
  end
  begin
     id 11 
     name lowerback
     direction 0.0149039 0.998517 -0.0523597   
     length 2.10809   
     axis 0 0 0   XYZ
    dof rx ry rz
    limits (-20.0 45.0)
           (-30.0 30.0)
           (-30.0 30.0)
  end
  begin
     id 12 
     name upperback
     direction -0.00882659 0.999418 -0.0329624   
     length 2.1102   
     axis 0 0 0   XYZ
    dof rx ry rz
    limits (-20.0 45.0)
           (-30.0 30.0)
           (-30.0 30.0)
  end
  begin
     id 13 
     name thorax
     direction -0.0165585 0.999826 -0.0085833   
     length 2.11039   
     axis 0 0 0   XYZ
    dof rx ry rz
    limits (-20.0 45.0)
           (-30.0 30.0)
           (-30.0 30.0)
  end
  begin
     id 14 
     name lowerneck
     direction -0.0130877 0.999911 0.00260353   
     length 1.73253   
     axis 0 0 0   XYZ
    dof rx ry rz
    limits (-20.0 45.0)
           (-30.0 30.0)
           (-30.0 30.0)
  end
  begin
     id 15 
     name upperneck
     direction -0.0348454 0.928205 -0.370435   
     length 1.66692   
     axis 0 0 0   XYZ
    dof rx ry rz
    limits (-20.0 45.0)
           (-30.0 30.0)
           (-30.0 30.0)
  end
  begin
     id 16
     name head
     direction -0.00807754 0.992494 -0.122026  
     length 1.72765  
     axis 0 0 0   XYZ
    dof rx ry rz
    limits (-20.0 45.0)
           (-30.0 30.0)
           (-30.0 30.0)
  end
  begin
     id 17 
     name lclavicle
     direction 0.987582 0.144023 0.0627671  
     length 3.49235  
     axis 0 0 0   XYZ
    dof ry rz
    limits (-20.0 10.0)
           (0.0 20.0)
  end
  begin
     id 18 
     name lhumerus
     direction 1 -4.48958e-011 -1.45183e-018   
     length 5.41917   
     axis 180 -30 -90   XYZ
    dof rx ry rz
    limits (-60.0 90.0)
           (-90.0 90.0)
           (-90.0 90.0)
  end
  begin
     id 19
     name lradius
     direction 1 -4.48999e-011 5.75106e-027   
     length 2.44373   
     axis 180 -30 -90   XYZ
    dof rx
    limits (-10.0 170.0)
  end
  begin
     id 20
     name lwrist
     direction 1 -4.48987e-011 1.53461e-026   
     length 1.22186   
     axis -1.09697e-014 90 90   XYZ
    dof ry
    limits (-180.0 0.0)
 end
  begin
     id 21 
     name lhand
     direction 1 -4.48881e-011 3.06923e-026   
     length 0.727502   
     axis -1.95843e-014 90 90   XYZ
    dof rx rz
    limits (-90.0 90.0)
           (-45.0 45.0)
  end
  begin
     id 22 
     name lfingers
     direction 1 -4.48907e-011 6.13845e-026   
     length 0.586531   
     axis -3.91686e-014 90 90   XYZ
    dof rx
    limits (0.0 90.0)
  end
  begin
     id 23
     name lthumb
     direction 0.707107 -6.3487e-011 0.707107   
     length 0.842145   
     axis -90 45 2.85299e-015   XYZ
    dof rx rz
    limits (-45.0 45.0)
           (-45.0 45.0)
  end
  begin
     id 24 
     name rclavicle
     direction -0.980998 0.169556 0.0943023   
     length 3.29272  
     axis 0 0 0   XYZ 
    dof ry rz
    limits (-10.0 20.0)
           (-20.0 0.0)
  end
  begin
     id 25 
     name rhumerus
     direction -1 -1.83355e-005 2.45537e-005  
     length 5.58976   
     axis 180 30 90   XYZ
    dof rx ry rz
    limits (-90.0 60.0)
           (-90.0 90.0)
           (-90.0 90.0)
  end
  begin
     id 26 
     name rradius
     direction -1 -4.48967e-011 5.97228e-027   
     length 2.4806   
     axis 180 30 90   XYZ
    dof rx
    limits (-10.0 170.0)
  end
  begin
     id 27 
     name rwrist
     direction -1 -4.48963e-011 1.53461e-026   
     length 1.2403   
     axis -1.09697e-014 -90 -90   XYZ
    dof ry
    limits (-180.0 0.0)
  end
  begin
     id 28
     name rhand
     direction -1 -4.48881e-011 3.06923e-026   
     length 0.816009   
     axis -1.95843e-014 -90 -90   XYZ
    dof rx rz
    limits (-90.0 90.0)
           (-45.0 45.0)
  end
  begin
     id 29
     name rfingers
     direction -1 -4.49018e-011 6.13845e-026   
     length 0.657887   
     axis -3.91686e-014 -90 -90   XYZ
    dof rx
    limits (0.0 90.0)
  end
  begin
     id 30
     name rthumb
     direction -0.707107 -6.34872e-011 0.707107   
     length 0.944599   
     axis -90 -45 -2.85299e-015   XYZ
    dof rx rz
    limits (-45.0 45.0)
           (-45.0 45.0)
  end
:hierarchy
  begin
    root lhipjoint rhipjoint lowerback
    lhipjoint lfemur
    lfemur ltibia
    ltibia lfoot
    lfoot ltoes
    rhipjoint rfemur
    rfemur rtibia
    rtibia rfoot
    rfoot rtoes
    lowerback upperback
    upperback thorax
    thorax lowerneck lclavicle rclavicle
    lowerneck upperneck
    upperneck head
    lclavicle lhumerus
    lhumerus lradius
    lradius lwrist
    lwrist lhand lthumb
    lhand lfingers
    rclavicle rhumerus
    rhumerus rradius
    rradius rwrist
    rwrist rhand rthumb
    rhand rfingers
  end

#!OML:ASF F:\VICON\USERDATA\INSTALL\rory3\rory3.ASF
:FULLY-SPECIFIED
:DEGREES
1
root 0.3703 16.4004 -14.3706 30.6706 -5.23012 -3.94429
lowerback -16.512 1.81326 -3.82256
upperback -6.28204 2.97235 0.336246
thorax 2.33178 1.53487 3.04717
lowerneck -9.10989 -1.32329 0.389994
upperneck 42.4901 -3.79032 3.90843
head 17.1378 -0.985408 1.08547
rclavicle -2.6339e-015 5.1684e-015
rhumerus -49 2.13687 -82.4994
rradius 18.4058
rwrist -24.2669
rhand 3.51758 8.58407
rfingers 7.12502
rthumb 28.955 -19.1874
lclavicle -2.6339e-015 5.1684e-015
lhumerus -47.6841 -8.28719 79.9821
lradius 53.9424
lwrist 23.1413
lhand 8.35217 13.459
lfingers 7.12502
lthumb 33.5618 40.3389
rfemur -21.3972 -0.919831 32.3849
rtibia 39.1162
rfoot 18.2163 -17.7683
rtoes 21.4298
lfemur -55.502 4.58195 -32.0029
ltibia 40.7042
lfoot -45.8581 29.0621
ltoes 19.3908
2
root 0.373537 16.3991 -14.3439 30.4545 -4.84223 -3.61466
lowerback -16.3704 1.61473 -3.83593
upperback -6.26315 2.70853 0.30277
thorax 2.29891 1.40339 2.9682
lowerneck -8.81122 -1.32256 0.680526
upperneck 42.3204 -3.76684 3.69645
head 16.9489 -0.965271 0.937572
rclavicle -3.22031e-014 -1.11319e-014
rhumerus -49.0942 2.17011 -82.3532
rradius 18.416
rwrist -23.5943
rhand 5.29715 7.86542
rfingers 7.12502
rthumb 30.6534 -19.6015
lclavicle -3.22031e-014 -1.11319e-014
lhumerus -48.183 -9.07887 80.2755
lradius 54.5422
lwrist 23.5459
lhand 9.52724 14.4183
lfingers 7.12502
lthumb 34.6778 41.049
rfemur -21.0037 -1.34846 32.2268
rtibia 38.9567
rfoot 18.3961 -17.6634
rtoes 20.3697
lfemur -55.0861 4.68779 -32.4188
ltibia 40.5318
lfoot -45.6376 29.1885
ltoes 18.8684
3
root 0.372511 16.3977 -14.3326 30.4644 -4.75537 -3.52689
lowerback -15.891 1.45669 -3.85911
upperback -6.42331 2.47653 0.429138
thorax 1.88671 1.30185 3.05109
lowerneck -9.09217 -1.24584 0.662345
upperneck 42.516 -3.58894 3.49597
head 17.1203 -0.916249 0.880189
rclavicle -8.59744e-015 5.1684e-015
rhumerus -49.0591 2.57649 -82.2359
rradius 18.1062
rwrist -22.6951
rhand 6.6292 8.19671
rfingers 7.12502
rthumb 31.9227 -19.0247
lclavicle -8.59744e-015 5.1684e-015
lhumerus -48.5878 -9.34796 80.5068
lradius 54.724
lwrist 23.5488
lhand 10.8784 14.8629
lfingers 7.12502
lthumb 35.959 41.1895
rfemur -20.9708 -1.33342 32.1935
rtibia 38.9304
rfoot 19.8834 -17.923
rtoes 24.9528
lfemur -55.0727 4.96304 -32.7078
ltibia 40.4462
lfoot -45.2361 29.5022
ltoes 17.7818
4
root 0.370215 16.3981 -14.3185 30.6373 -4.90664 -3.34611
lowerback -15.4789 1.57427 -3.88326
upperback -6.85925 2.61679 0.227388
thorax 1.20547 1.39312 2.84706
lowerneck -8.97408 -1.36094 0.689171
upperneck 42.7057 -3.82065 3.59456
head 17.2111 -0.991751 0.887295
rclavicle -2.44008e-014 -7.55382e-015
rhumerus -49.6268 2.38104 -82.2386
rradius 17.6896
rwrist -21.4234
rhand 7.59789 9.31068
rfingers 7.12502
rthumb 32.8446 -17.7222
lclavicle -2.44008e-014 -7.55382e-015
lhumerus -49.197 -10.4622 80.785
lradius 54.6054
lwrist 23.2953
lhand 12.3885 15.0867
lfingers 7.12502
lthumb 37.3881 41.0498
rfemur -21.1013 -1.09189 31.9464
rtibia 38.8696
rfoot 20.0463 -17.9062
rtoes 25.1178
lfemur -55.2179 5.14197 -33.0938
ltibia 40.4086
lfoot -44.8773 29.4685
ltoes 17.6995
5
root 0.372852 16.3969 -14.2999 30.7608 -5.0047 -3.31001
lowerback -15.9239 1.53453 -3.9157
upperback -6.64283 2.58712 0.350781
thorax 1.66378 1.36602 3.01424
lowerneck -9.11364 -1.3391 0.541313
upperneck 42.5244 -3.72954 3.56008
head 17.1397 -0.98358 0.908783
rclavicle 2.83268e-015 -5.36719e-015
rhumerus -49.2675 3.06011 -82.3487
rradius 17.491
rwrist -20.8347
rhand 8.79925 9.96177
rfingers 7.12502
rthumb 33.9866 -16.825
lclavicle 2.83268e-015 -5.36719e-015
lhumerus -48.8587 -10.9149 81.1589
lradius 54.1906
lwrist 22.9487
lhand 13.7607 15.8146
lfingers 7.12502
lthumb 38.6838 41.4245
rfemur -21.1065 -1.0324 31.8319
rtibia 38.7948
rfoot 18.3 -17.3852
rtoes 20.0579
lfemur -55.2858 5.22686 -33.2454
ltibia 40.4498
lfoot -44.8837 29.0639
ltoes 18.5249
6
root 0.383344 16.3957 -14.2907 31.0103 -5.29712 -3.66601
lowerback -16.1344 1.64539 -3.48873
upperback -6.64014 2.67201 0.514174
thorax 1.78481 1.40039 2.96805
lowerneck -9.1173 -1.27106 0.500682
upperneck 42.431 -3.56051 3.43114
head 17.0766 -0.939848 0.882922
rclavicle 1.54555e-014 3.18055e-015
rhumerus -49.2497 3.91752 -82.5839
rradius 17.698
rwrist -20.5834
rhand 10.3126 9.91613
rfingers 7.12502
rthumb 35.4228 -16.5401
lclavicle 1.54555e-014 3.18055e-015
lhumerus -49.0713 -11.1951 81.5672
lradius 54.2312
lwrist 22.7111
lhand 14.9397 17.253
lfingers 7.12502
lthumb 39.7949 42.5406
rfemur -21.2223 -0.875186 31.9474
rtibia 38.7356
rfoot 19.0227 -17.3196
rtoes 21.4161
lfemur -55.583 5.36515 -33.0166
ltibia 40.5076
lfoot -45.1396 29.2466
ltoes 18.2739
7
root 0.387212 16.3929 -14.2774 31.231 -5.32537 -3.82292
lowerback -16.1488 1.62728 -3.25368
upperback -6.77182 2.60681 0.644801
thorax 1.66308 1.3701 2.95902
lowerneck -9.22025 -1.21942 0.559755
upperneck 42.5491 -3.45359 3.28843
head 17.1619 -0.903262 0.825866
rclavicle -1.50579e-014 -2.18663e-015
rhumerus -49.4891 4.46783 -82.7229
rradius 18.0526
rwrist -19.9878
rhand 11.5157 9.72884
rfingers 7.12502
rthumb 36.5625 -16.4475
lclavicle -1.50579e-014 -2.18663e-015
lhumerus -49.6753 -11.5691 82.0111
lradius 54.4934
lwrist 22.6952
lhand 15.5706 18.1848
lfingers 7.12502
lthumb 40.3885 43.2925
rfemur -21.3166 -0.767527 32.0675
rtibia 38.6676
rfoot 18.4474 -17.1242
rtoes 20.0355
lfemur -55.8116 5.46285 -32.9344
ltibia 40.5431
lfoot -44.9431 29.0193
ltoes 18.2818
8
root 0.383867 16.392 -14.2625 31.3397 -5.25606 -3.64076
lowerback -16.0679 1.51551 -3.43919
upperback -6.84063 2.48174 0.689714
thorax 1.54538 1.31511 3.08526
lowerneck -9.39647 -1.21533 0.710459
upperneck 42.5953 -3.42769 3.11237
head 17.2247 -0.8891 0.721804
rclavicle -3.21037e-014 -1.59028e-015
rhumerus -49.5498 4.83186 -82.8569
rradius 18.0806
rwrist -19.5009
rhand 12.5733 9.70279
rfingers 7.12502
rthumb 37.5628 -16.2141
lclavicle -3.21037e-014 -1.59028e-015
lhumerus -49.9697 -12.2119 82.5127
lradius 54.3529
lwrist 22.6713
lhand 16.0574 18.3314
lfingers 7.12502
lthumb 40.8461 43.2966
rfemur -21.4221 -0.708852 31.9664
rtibia 38.6652
rfoot 20.918 -18.2324
rtoes 27.1128
lfemur -55.8576 5.52055 -33.1934
ltibia 40.4976
lfoot -44.5766 28.7063
ltoes 18.3866
9
root 0.379396 16.3944 -14.2441 31.4236 -5.26407 -3.5289
lowerback -16.0295 1.41962 -3.53259
upperback -6.85548 2.36497 0.754742
thorax 1.51085 1.26014 3.18548
lowerneck -9.57077 -1.16058 0.687629
upperneck 42.5415 -3.29867 3.00608
head 17.2315 -0.853447 0.69644
rclavicle -2.21148e-014 -5.36719e-015
rhumerus -49.4617 5.18934 -82.9013
rradius 17.9221
rwrist -19.0029
rhand 13.7199 9.56366
rfingers 7.12502
rthumb 38.6454 -16.057
lclavicle -2.21148e-014 -5.36719e-015
lhumerus -50.1103 -12.8052 83.0081
lradius 53.8822
lwrist 21.9572
lhand 16.6361 18.1351
lfingers 7.12502
lthumb 41.3894 42.9264
rfemur -21.5026 -0.522523 31.9141
rtibia 38.6518
rfoot 18.3523 -18.1684
rtoes 20.7726
lfemur -55.866 5.60504 -33.3678
ltibia 40.4264
lfoot -44.4567 28.6223
ltoes 18.3748
10
root 0.379083 16.3969 -14.224 31.5325 -5.4628 -3.31007
lowerback -15.8808 1.43927 -3.66553
upperback -7.04814 2.40441 0.669107
thorax 1.2227 1.29082 3.16616
lowerneck -9.54343 -1.14109 0.731752
upperneck 42.605 -3.29162 3.02229
head 17.2612 -0.840568 0.698258
rclavicle 3.11843e-014 1.31198e-014
rhumerus -49.7803 5.41047 -83.0625
rradius 18.0211
rwrist -18.6243
rhand 14.7982 9.09105
rfingers 7.12502
rthumb 39.6616 -16.2362
lclavicle 3.11843e-014 1.31198e-014
lhumerus -50.7323 -13.8145 83.7884
lradius 53.2591
lwrist 20.4118
lhand 16.6236 16.658
lfingers 7.12502
lthumb 41.3777 41.4531
rfemur -21.5656 -0.357728 31.632
rtibia 38.6126
rfoot 20.9597 -19.1263
rtoes 27.3901
lfemur -55.876 5.7167 -33.738
ltibia 40.3647
lfoot -44.7224 28.5017
ltoes 18.5939
